<mxfile host="Electron" modified="2023-10-19T16:56:25.472Z" agent="Mozilla/5.0 (Windows NT 10.0; Win64; x64) AppleWebKit/537.36 (KHTML, like Gecko) draw.io/22.0.2 Chrome/114.0.5735.289 Electron/25.8.4 Safari/537.36" etag="JY1BruHM5sFBGbOxs2Mk" version="22.0.2" type="device">
  <diagram name="page-1" id="nTteX_-L-bd6lsjCAH_5">
    <mxGraphModel dx="829" dy="485" grid="1" gridSize="10" guides="1" tooltips="1" connect="1" arrows="1" fold="1" page="1" pageScale="1" pageWidth="827" pageHeight="1169" math="0" shadow="0">
      <root>
        <mxCell id="0" />
        <mxCell id="1" parent="0" />
        <mxCell id="gnkJIxszWGw6bPNyjbUk-6" style="edgeStyle=orthogonalEdgeStyle;rounded=0;orthogonalLoop=1;jettySize=auto;html=1;exitX=1;exitY=0.25;exitDx=0;exitDy=0;entryX=0;entryY=0.25;entryDx=0;entryDy=0;curved=1;" parent="1" source="0EIq4OgII-BHYrVc7AHv-1" target="gnkJIxszWGw6bPNyjbUk-2" edge="1">
          <mxGeometry relative="1" as="geometry" />
        </mxCell>
        <mxCell id="0EIq4OgII-BHYrVc7AHv-1" value="Node &quot;A&quot;" style="rounded=0;whiteSpace=wrap;html=1;" parent="1" vertex="1">
          <mxGeometry x="20" y="20" width="120" height="60" as="geometry" />
        </mxCell>
        <mxCell id="gnkJIxszWGw6bPNyjbUk-7" style="edgeStyle=orthogonalEdgeStyle;rounded=0;orthogonalLoop=1;jettySize=auto;html=1;exitX=1;exitY=0.25;exitDx=0;exitDy=0;entryX=0;entryY=0.5;entryDx=0;entryDy=0;curved=1;" parent="1" source="gnkJIxszWGw6bPNyjbUk-1" target="gnkJIxszWGw6bPNyjbUk-2" edge="1">
          <mxGeometry relative="1" as="geometry" />
        </mxCell>
        <mxCell id="gnkJIxszWGw6bPNyjbUk-1" value="Node &quot;B&quot;" style="rounded=0;whiteSpace=wrap;html=1;" parent="1" vertex="1">
          <mxGeometry x="20" y="110" width="120" height="60" as="geometry" />
        </mxCell>
        <mxCell id="gnkJIxszWGw6bPNyjbUk-8" style="edgeStyle=orthogonalEdgeStyle;orthogonalLoop=1;jettySize=auto;html=1;exitX=1;exitY=0.25;exitDx=0;exitDy=0;entryX=0;entryY=0.25;entryDx=0;entryDy=0;curved=1;strokeColor=default;targetPerimeterSpacing=0;endSize=6;startSize=6;sourcePerimeterSpacing=0;" parent="1" source="gnkJIxszWGw6bPNyjbUk-2" target="gnkJIxszWGw6bPNyjbUk-3" edge="1">
          <mxGeometry relative="1" as="geometry" />
        </mxCell>
        <mxCell id="gnkJIxszWGw6bPNyjbUk-2" value="Node &quot;C&quot;" style="rounded=0;whiteSpace=wrap;html=1;" parent="1" vertex="1">
          <mxGeometry x="240" y="20" width="120" height="60" as="geometry" />
        </mxCell>
        <mxCell id="gnkJIxszWGw6bPNyjbUk-3" value="Node &quot;D&quot;" style="rounded=0;whiteSpace=wrap;html=1;" parent="1" vertex="1">
          <mxGeometry x="490" y="80" width="120" height="60" as="geometry" />
        </mxCell>
        <mxCell id="gnkJIxszWGw6bPNyjbUk-10" value="incoming&lt;br&gt;node to &quot;C&quot;" style="shape=note;whiteSpace=wrap;html=1;backgroundOutline=1;darkOpacity=0.05;size=13;fillColor=#fff2cc;strokeColor=#d6b656;" parent="1" vertex="1">
          <mxGeometry x="90" y="160" width="80" height="40" as="geometry" />
        </mxCell>
        <mxCell id="gnkJIxszWGw6bPNyjbUk-11" value="outgoing&lt;br&gt;node to &quot;C&quot;" style="shape=note;whiteSpace=wrap;html=1;backgroundOutline=1;darkOpacity=0.05;size=13;fillColor=#fff2cc;strokeColor=#d6b656;" parent="1" vertex="1">
          <mxGeometry x="459" y="130" width="80" height="40" as="geometry" />
        </mxCell>
      </root>
    </mxGraphModel>
  </diagram>
</mxfile>
